<svg xmlns="http://www.w3.org/2000/svg" width="256" height="256"><path fill-opacity=".016" d="M0 128.004v128.004l128.25-.254 128.25-.254.254-127.75L257.008 0H0v128.004m.485.496c0 70.4.119 99.053.265 63.672.146-35.38.146-92.98 0-128C.604 29.153.485 58.1.485 128.5" fill="#1976D2" fill-rule="evenodd"/><path fill-opacity=".095" d="M106.5 1.415c-22.966 4.444-39.629 11.86-57.124 25.424C25.971 44.985 10.228 69.427 2.899 99 .834 107.331.543 110.9.533 128c-.01 17.843.216 20.392 2.652 30C13.734 199.599 42.297 232.139 82 247.79c15.705 6.191 24.516 7.664 46 7.688 18.223.021 20.211-.163 30.364-2.81 19.078-4.972 33.269-11.884 48.26-23.507 15.582-12.081 28.048-27.356 36.393-44.595 5.92-12.23 8.307-19.271 10.53-31.066.933-4.95 2.092-9.781 2.575-10.736 1.257-2.486 1.142-31.045-.122-30.264-.576.356-1.001-.573-1.001-2.191-.003-4.897-4.721-22.502-8.312-31.011C232.993 46.847 208.445 22.429 176 8.984 161.358 2.917 150.393.831 131 .426c-12.009-.251-19.696.06-24.5.989m-50.045 55.04L54 58.909v138.182l2.455 2.454L58.909 202h100.245l2.923-2.923 2.923-2.923V85.12l-18.445-15.56L128.111 54H58.909l-2.454 2.455m30.212 50.795-5.524 6.25-3.012-2.88c-3.002-2.871-6.131-3.057-6.131-.364 0 .726 2.194 3.48 4.875 6.121l4.875 4.801 7.137-8.475c4.802-5.703 6.935-9.004 6.518-10.09-1.085-2.827-3.075-1.771-8.738 4.637m18.523-2.5c.307 1.593 2.036 1.75 19.31 1.75 17.274 0 19.003-.157 19.31-1.75.311-1.619-1.137-1.75-19.31-1.75s-19.621.131-19.31 1.75M.402 128c0 8.525.154 12.012.341 7.75.188-4.262.188-11.237 0-15.5-.187-4.263-.341-.775-.341 7.75m105.295-13.363c-.383.383-.697 1.296-.697 2.03 0 1.04 2.762 1.333 12.573 1.333 11.436 0 12.543-.158 12.238-1.75-.292-1.526-1.811-1.786-11.876-2.03-6.348-.154-11.855.033-12.238.417m-19.002 22.764-5.431 6.402-3.043-3.043c-3.24-3.241-6.221-3.241-6.221 0 0 1.798 7.772 10.24 9.428 10.24.468 0 1.351-.639 1.962-1.419.61-.781 3.751-4.608 6.978-8.506 4.881-5.894 5.659-7.337 4.627-8.58-.682-.822-1.607-1.495-2.055-1.495-.448 0-3.259 2.881-6.245 6.401m18.765-3.336c-1.545 2.5 1.87 2.971 19.613 2.708 15.591-.231 18.427-.504 18.427-1.773 0-1.27-2.863-1.542-18.678-1.772-12.867-.187-18.89.073-19.362.837m-.27 12.685c.299 1.55 1.703 1.75 12.31 1.75 10.607 0 12.011-.2 12.31-1.75.306-1.592-.804-1.75-12.31-1.75s-12.616.158-12.31 1.75m-15.319 17.385c-1.73 1.851-4.262 4.827-5.627 6.615l-2.481 3.249-3.381-2.968c-3.502-3.076-6.382-3.137-6.382-.136 0 .924 2.172 3.82 4.827 6.435l4.827 4.754 7.173-8.651c3.945-4.759 7.173-8.998 7.173-9.42 0-.423-.671-1.325-1.491-2.006-1.234-1.024-2.035-.656-4.638 2.128m15.817-.49c-.378.379-.688 1.288-.688 2.022 0 1.065 3.929 1.333 19.573 1.333 18.103 0 19.548-.131 19.237-1.75-.303-1.58-2.14-1.776-18.885-2.021-10.202-.15-18.859.038-19.237.416m-.242 12.442c-1.431 2.315 1.641 2.971 12.626 2.697 9.933-.247 11.447-.51 11.739-2.034.305-1.588-.775-1.75-11.679-1.75-7.572 0-12.262.402-12.686 1.087" fill="#1976D2" fill-rule="evenodd"/><path fill-opacity=".357" d="M114 .623C57.914 7.763 14.308 47.765 2.401 103c-2.562 11.885-2.562 38.115 0 50 5.591 25.936 16.685 46.276 35.504 65.095 18.819 18.819 39.159 29.913 65.095 35.504 11.767 2.537 38.123 2.562 49.768.047 34.125-7.368 62.787-26.661 81.929-55.146 10.513-15.645 20.203-42.252 20.281-55.691.012-2.03.472-3.969 1.022-4.309.569-.351 1-5.363 1-11.618 0-7.079-.356-10.78-1-10.382-.599.37-1.009-.911-1.022-3.191-.012-2.095-.874-7.634-1.916-12.309C242.076 51.703 204.588 14.199 155 2.894 146.652.991 121.887-.381 114 .623M56.174 56.314 54 58.629v139.022l2.314 2.175C58.628 201.999 58.65 202 109.36 202h50.731l2.454-2.455 2.455-2.454V84.496l-18.195-15.248L128.61 54H58.349l-2.175 2.314m126.993 32.302c-3.687 7.476-3.861 8.942-1.233 10.349 2.871 1.536 4.833 1.268 7.066-.965l2-2 2 2c2.464 2.464 4.137 2.519 6.961.232l2.184-1.767-3.382-7.057c-3.114-6.498-3.556-6.979-5.581-6.076-1.469.655-2.971.629-4.524-.078-2.18-.993-2.522-.658-5.491 5.362m-92.409 14.58c-1.242 1.267-3.866 4.262-5.831 6.654l-3.573 4.35-3.202-3.202c-2.603-2.603-3.474-2.976-4.656-1.995-1.826 1.515-.935 3.256 4.218 8.248l3.873 3.752 6.707-8.121c3.688-4.467 6.706-8.716 6.706-9.443 0-2.449-1.968-2.562-4.242-.243M.378 128c0 6.325.163 8.912.361 5.75.198-3.163.198-8.338 0-11.5-.198-3.163-.361-.575-.361 5.75m90.59 4.75c-.017.412-2.232 3.225-4.922 6.25l-4.89 5.5-3.018-2.88c-1.833-1.749-3.631-2.645-4.578-2.281-2.388.916-1.953 1.849 3.255 6.979l4.815 4.743 6.685-7.986c3.677-4.393 6.685-8.681 6.685-9.531 0-1.514-3.968-2.296-4.032-.794m-4.243 35.5-5.534 6.25-3.036-2.88c-1.842-1.747-3.649-2.644-4.595-2.281-2.391.917-1.953 1.849 3.295 7.019l4.856 4.782 6.644-7.967C94.816 165.427 96.434 162 93.629 162c-.753 0-3.86 2.813-6.904 6.25m92.846 23.943c.834 7.713 2.454 9.807 7.584 9.807H191v-11h5.5c5.04 0 5.499-.188 5.491-2.25-.009-2.185-.343-2.259-11.556-2.557l-11.547-.307.683 6.307" fill="#1976D2" fill-rule="evenodd"/><path fill-opacity=".253" d="M115.265.972C58.709 7.383 14.59 47.541 2.881 103.266c-3 14.276-3 35.192 0 49.468 9.453 44.987 39.981 80.207 82.885 95.624 26.059 9.363 58.409 9.363 84.468 0 42.78-15.373 73.728-51.007 82.75-95.281 1.109-5.44 2.016-11.931 2.016-14.425 0-2.494.45-4.812 1-5.152.55-.34 1-3.318 1-6.618 0-3.745-.376-5.768-1-5.382-.612.378-1-1.187-1-4.034 0-2.558-.907-9.103-2.016-14.543-10.305-50.571-49.425-89.729-99.75-99.849C141.643.743 125.278-.163 115.265.972M58.11 54.396c-5.145 2.851-5.037 1.286-5.075 73.307-.026 50.039.27 67.873 1.16 69.825 2.49 5.466 2.549 5.472 55.74 5.472h49.033l3.266-2.918 3.266-2.917V84.595L147 68.853 128.5 53.11l-34-.02c-26.382-.015-34.536.278-36.39 1.306m124.564 34.212L179 96.033v102.058l2.455 2.454c2.111 2.112 3.379 2.455 9.076 2.455 5.987 0 6.904-.281 9.546-2.923 2.532-2.532 2.923-3.669 2.923-8.5V186h-12v-44.571c0-41.148.125-44.447 1.625-42.946 2.02 2.019 7.285 1.638 8.704-.63.778-1.243.224-3.499-2.262-9.199-3.285-7.535-3.298-7.549-5.68-5.988-2.143 1.404-2.625 1.408-4.713.04-2.294-1.503-2.376-1.423-6 5.902M.32 128c0 3.575.182 5.037.403 3.25.222-1.787.222-4.713 0-6.5-.221-1.787-.403-.325-.403 3.25" fill="#1976D2" fill-rule="evenodd"/></svg>